<?xml version="1.0" encoding="UTF-8"?>
<svg version="1.1" xmlns="http://www.w3.org/2000/svg" width="87" height="112">
<path d="M0 0 C2.66369256 2.3236467 4.09923792 4.08672543 6 7 C6.66644531 8.01191406 7.33289062 9.02382812 8.01953125 10.06640625 C24.83706886 36.49289543 37.02664775 68.18023763 37.25 99.8125 C37.270625 100.56208984 37.29125 101.31167969 37.3125 102.08398438 C37.35111096 107.48469303 37.35111096 107.48469303 35.671875 109.94921875 C32.45571522 111.9705902 29.65854618 112.13317672 25.96533203 112.16113281 C24.94061798 112.17074036 23.91590393 112.1803479 22.86013794 112.19024658 C21.75387054 112.19449646 20.64760315 112.19874634 19.5078125 112.203125 C18.36972137 112.20882507 17.23163025 112.21452515 16.05905151 112.22039795 C13.64989146 112.22984879 11.24071848 112.23638226 8.83154297 112.24023438 C5.14658063 112.24994314 1.46217523 112.28096781 -2.22265625 112.3125 C-4.56249669 112.31902977 -6.90234111 112.32428034 -9.2421875 112.328125 C-10.34440643 112.3404718 -11.44662537 112.3528186 -12.58224487 112.36553955 C-13.61326324 112.36253845 -14.64428162 112.35953735 -15.70654297 112.35644531 C-16.61016571 112.36009094 -17.51378845 112.36373657 -18.4447937 112.36749268 C-21.5666904 111.91849794 -23.4493645 110.82504849 -26 109 C-28.63960274 104.50067714 -28.93012492 98.89467718 -29.75 93.8125 C-32.90306077 75.68800701 -38.97324629 59.87206062 -48.71484375 44.25 C-50.23008153 41.59718249 -50.91945628 39.3016523 -50.78125 36.2265625 C-48.88288356 30.81621816 -43.36707136 27.43999069 -39 24 C-38.4544043 23.56284668 -37.90880859 23.12569336 -37.34667969 22.67529297 C-34.49072482 20.38735022 -31.61446374 18.12800579 -28.71875 15.890625 C-24.02480267 12.25936317 -19.41115439 8.52828525 -14.79785156 4.79541016 C-9.93310002 0.88029374 -6.42163565 -1.36656276 0 0 Z " fill="#418946" transform="translate(50,0)"/>
</svg>
